<svg width="144" height="144" xmlns="http://www.w3.org/2000/svg" xmlns:xlink="http://www.w3.org/1999/xlink" xml:space="preserve" overflow="hidden">
<rect width="100%" height="100%" fill="#0D0D0D"/>
<g transform="translate(-568 -288)"><path d="M636.25 318C613 318 594.25 336.75 594.25 360 594.25 367.35 596.2 374.25 599.5 380.25 602.65 376.95 606.1 373.65 609.85 370.05 619.3 361.2 630.4 352.2 639.7 345.6 640.3 345.15 640.9 344.85 641.65 344.85 643.3 344.85 644.65 346.2 644.65 347.85 644.65 348.9 644.2 349.65 643.45 350.25L643.45 350.25C630.1 359.85 612.4 374.7 600.4 388.2 600.4 388.2 598.75 390 598 390.9L598 390.9C591.25 398.85 586.75 406.05 586.75 411.15L595.75 411.15C595.75 407.85 601 400.65 608.95 392.1 616.3 398.4 625.75 402.15 636.25 402.15 643.75 402.15 650.95 400.2 657.1 396.6L657.1 396.6C689.2 378.75 693.25 345.9 693.25 309 693.25 309 658.3 318.6 636.25 318Z" fill="#4CAF50"/></g></svg>