<svg width="96" height="96" xmlns="http://www.w3.org/2000/svg" xmlns:xlink="http://www.w3.org/1999/xlink" xml:space="preserve" overflow="hidden"><g transform="translate(-592 -312)"><path d="M634 319 646 319 646 363 634 363Z" fill="#FFFFFF"/><path d="M661.8 331.9 654.9 341.7C661.6 346.4 666 354.2 666 363 666 377.3 654.3 389 640 389 625.7 389 614 377.3 614 363 614 354.2 618.4 346.4 625.1 341.7L618.2 331.9C608.4 338.7 602 350.1 602 363 602 384 619 401 640 401 661 401 678 384 678 363 678 350.1 671.6 338.7 661.8 331.9Z" fill="#FFFFFF"/></g></svg>